Coordinates
version=1
nRows=9
nColumns=24
inDegrees=yes

Units are S.I. units (second, meters, Newtons, ...)
Angles are in degrees.

endheader
time	pelvis_tilt	pelvis_list	pelvis_rotation	pelvis_tx	pelvis_ty	pelvis_tz	hip_flexion_r	hip_adduction_r	hip_rotation_r	knee_angle_r	ankle_angle_r	subtalar_angle_r	mtp_angle_r	hip_flexion_l	hip_adduction_l	hip_rotation_l	knee_angle_l	ankle_angle_l	subtalar_angle_l	mtp_angle_l	lumbar_extension	lumbar_bending	lumbar_rotation
      1.14450000	     -3.57267878	      0.98008965	     -4.12694547	      0.22355831	      1.05911136	      0.27613278	     20.32919386	     -5.75296565	     -6.67845598	    -73.56731849	      2.47665788	     -6.18938861	      5.88005129	     17.48829489	     -0.11963541	      0.97190192	    -24.90348082	     15.06862117	      5.96807496	      2.24040194	     -4.88538558	     -3.19963705	      3.27377141
      1.14866667	     -3.56215410	      0.85873426	     -4.17820847	      0.22908220	      1.06063466	      0.27625856	     20.86341890	     -5.53922769	     -6.78111549	    -73.35636820	      2.75605546	     -5.84917920	      5.90488824	     16.86197070	     -0.26219021	      0.86072975	    -24.34832137	     15.09864616	      6.09316337	      2.25846777	     -4.90439710	     -3.08547289	      3.21001469
      1.15283333	     -3.54918551	      0.72489456	     -4.22241700	      0.23459309	      1.06213582	      0.27638375	     21.37555835	     -5.30768767	     -6.89166288	    -73.07112376	      3.01940957	     -5.52014355	      5.93566342	     16.23338859	     -0.41614268	      0.75302268	    -23.78978949	     15.09754364	      6.19941767	      2.27760863	     -4.93453006	     -2.95046286	      3.13594659
      1.15700000	     -3.54591832	      0.58854632	     -4.25750091	      0.24008753	      1.06357604	      0.27650025	     21.88354322	     -5.07128229	     -7.00917300	    -72.72362265	      3.27059998	     -5.20615470	      5.96559253	     15.61937585	     -0.57018746	      0.65628703	    -23.23257257	     15.06896867	      6.29367219	      2.29249847	     -4.96158882	     -2.81165967	      3.06170895
      1.16116667	     -3.52417112	      0.47628480	     -4.26911126	      0.24559796	      1.06497991	      0.27656098	     22.35417198	     -4.88120833	     -7.15672278	    -72.32393313	      3.54935393	     -4.85442477	      6.01091790	     14.98425188	     -0.68651688	      0.57990957	    -22.66400110	     15.06990456	      6.38921895	      2.31738460	     -4.99761110	     -2.69448747	      2.94844107
      1.16533333	     -3.52788803	      0.33703524	     -4.27419240	      0.25109274	      1.06631089	      0.27662504	     22.83075206	     -4.65159876	     -7.30807498	    -71.84866721	      3.78984487	     -4.55722711	      6.04678574	     14.38542203	     -0.83427193	      0.50939924	    -22.11104228	     15.03088655	      6.47262522	      2.33371244	     -5.01971481	     -2.54461847	      2.86060098
      1.16950000	     -3.49912364	      0.22630597	     -4.25532287	      0.25659827	      1.06763378	      0.27662659	     23.25577240	     -4.47615082	     -7.48672043	    -71.32505367	      4.06008248	     -4.22799616	      6.09927039	     13.74991142	     -0.93798529	      0.46839205	    -21.54338979	     15.02543899	      6.55052512	      2.36058070	     -5.06715861	     -2.41843263	      2.71789351
      1.17366667	     -3.49009525	      0.09471169	     -4.22487485	      0.26208608	      1.06886764	      0.27661638	     23.68212968	     -4.27484736	     -7.67587057	    -70.73591594	      4.30529206	     -3.94937156	      6.15836818	     13.14697353	     -1.06494739	      0.43707168	    -20.99454252	     14.99972648	      6.62881519	      2.39164128	     -5.10219962	     -2.26557911	      2.57298105
      1.17783333	     -3.46670322	     -0.03133701	     -4.18201180	      0.26756825	      1.07007563	      0.27658812	     24.07479879	     -4.08646607	     -7.87580741	    -70.08926363	      4.54663397	     -3.68186500	      6.21513942	     12.53316330	     -1.18288065	      0.41198159	    -20.44797766	     14.96977141	      6.69520928	      2.42067255	     -5.15214470	     -2.11550654	      2.43286226
